<mxfile host="app.diagrams.net" modified="2024-04-16T18:21:21.456Z" agent="Mozilla/5.0 (Windows NT 10.0; Win64; x64) AppleWebKit/537.36 (KHTML, like Gecko) Chrome/121.0.0.0 Safari/537.36 OPR/107.0.0.0" etag="W8eGUBt06ZND-ekhoYwV" version="24.2.5" type="google">
  <diagram name="PÃ¡gina-1" id="Sx3PE-DVoWs0Bc4QtXfP">
    <mxGraphModel grid="1" page="1" gridSize="10" guides="1" tooltips="1" connect="1" arrows="1" fold="1" pageScale="1" pageWidth="827" pageHeight="1169" math="0" shadow="0">
      <root>
        <mxCell id="0" />
        <mxCell id="1" parent="0" />
        <mxCell id="BjHzqv3QGcnHU68rqR9x-34" value="" style="rounded=0;whiteSpace=wrap;html=1;" vertex="1" parent="1">
          <mxGeometry x="50" y="-230" width="690" height="1280" as="geometry" />
        </mxCell>
        <mxCell id="BjHzqv3QGcnHU68rqR9x-3" value="Entra al servidor linux" style="ellipse;whiteSpace=wrap;html=1;" vertex="1" parent="1">
          <mxGeometry x="170" y="680" width="120" height="80" as="geometry" />
        </mxCell>
        <mxCell id="BjHzqv3QGcnHU68rqR9x-4" value="Cliente&lt;div&gt;&lt;br&gt;&lt;/div&gt;" style="shape=umlActor;verticalLabelPosition=bottom;verticalAlign=top;html=1;outlineConnect=0;" vertex="1" parent="1">
          <mxGeometry x="205" y="1070" width="50" height="80" as="geometry" />
        </mxCell>
        <mxCell id="BjHzqv3QGcnHU68rqR9x-7" value="" style="endArrow=none;html=1;rounded=0;" edge="1" parent="1" target="BjHzqv3QGcnHU68rqR9x-3">
          <mxGeometry width="50" height="50" relative="1" as="geometry">
            <mxPoint x="230" y="1060" as="sourcePoint" />
            <mxPoint x="285" y="830" as="targetPoint" />
          </mxGeometry>
        </mxCell>
        <mxCell id="BjHzqv3QGcnHU68rqR9x-9" value="" style="endArrow=classic;html=1;rounded=0;" edge="1" parent="1">
          <mxGeometry width="50" height="50" relative="1" as="geometry">
            <mxPoint x="229.5" y="600" as="sourcePoint" />
            <mxPoint x="229.5" y="680" as="targetPoint" />
          </mxGeometry>
        </mxCell>
        <mxCell id="BjHzqv3QGcnHU68rqR9x-11" value="Logear" style="ellipse;whiteSpace=wrap;html=1;" vertex="1" parent="1">
          <mxGeometry x="369" y="680" width="120" height="80" as="geometry" />
        </mxCell>
        <mxCell id="BjHzqv3QGcnHU68rqR9x-12" value="Registrar" style="ellipse;whiteSpace=wrap;html=1;" vertex="1" parent="1">
          <mxGeometry x="170" y="530" width="120" height="80" as="geometry" />
        </mxCell>
        <mxCell id="BjHzqv3QGcnHU68rqR9x-13" value="" style="endArrow=classic;html=1;rounded=0;" edge="1" parent="1">
          <mxGeometry width="50" height="50" relative="1" as="geometry">
            <mxPoint x="489" y="719.5" as="sourcePoint" />
            <mxPoint x="559" y="719.5" as="targetPoint" />
          </mxGeometry>
        </mxCell>
        <mxCell id="BjHzqv3QGcnHU68rqR9x-14" value="Ingresa credenciales" style="ellipse;whiteSpace=wrap;html=1;" vertex="1" parent="1">
          <mxGeometry x="560" y="680" width="120" height="80" as="geometry" />
        </mxCell>
        <mxCell id="BjHzqv3QGcnHU68rqR9x-15" value="Ingresar credenciales" style="ellipse;whiteSpace=wrap;html=1;" vertex="1" parent="1">
          <mxGeometry x="450" y="530" width="120" height="80" as="geometry" />
        </mxCell>
        <mxCell id="BjHzqv3QGcnHU68rqR9x-16" value="" style="endArrow=classic;html=1;rounded=0;entryX=0;entryY=0.5;entryDx=0;entryDy=0;" edge="1" parent="1" target="BjHzqv3QGcnHU68rqR9x-15">
          <mxGeometry width="50" height="50" relative="1" as="geometry">
            <mxPoint x="290" y="570" as="sourcePoint" />
            <mxPoint x="364" y="569.5" as="targetPoint" />
          </mxGeometry>
        </mxCell>
        <mxCell id="BjHzqv3QGcnHU68rqR9x-18" value="Valida si el usuario existe" style="ellipse;whiteSpace=wrap;html=1;" vertex="1" parent="1">
          <mxGeometry x="450" y="230" width="120" height="80" as="geometry" />
        </mxCell>
        <mxCell id="BjHzqv3QGcnHU68rqR9x-19" value="" style="endArrow=classic;html=1;rounded=0;exitX=0.5;exitY=0;exitDx=0;exitDy=0;entryX=0.5;entryY=1;entryDx=0;entryDy=0;" edge="1" parent="1" source="BjHzqv3QGcnHU68rqR9x-15" target="BjHzqv3QGcnHU68rqR9x-20">
          <mxGeometry width="50" height="50" relative="1" as="geometry">
            <mxPoint x="390" y="580" as="sourcePoint" />
            <mxPoint x="430" y="480" as="targetPoint" />
          </mxGeometry>
        </mxCell>
        <mxCell id="BjHzqv3QGcnHU68rqR9x-20" value="Valida si cumplen con los criterios y requerimientos" style="ellipse;whiteSpace=wrap;html=1;" vertex="1" parent="1">
          <mxGeometry x="444.5" y="360" width="131" height="100" as="geometry" />
        </mxCell>
        <mxCell id="BjHzqv3QGcnHU68rqR9x-21" value="" style="endArrow=classic;html=1;rounded=0;entryX=0.5;entryY=1;entryDx=0;entryDy=0;exitX=0.5;exitY=0;exitDx=0;exitDy=0;" edge="1" parent="1" source="BjHzqv3QGcnHU68rqR9x-20" target="BjHzqv3QGcnHU68rqR9x-18">
          <mxGeometry width="50" height="50" relative="1" as="geometry">
            <mxPoint x="120" y="400" as="sourcePoint" />
            <mxPoint x="170" y="350" as="targetPoint" />
          </mxGeometry>
        </mxCell>
        <mxCell id="BjHzqv3QGcnHU68rqR9x-22" value="" style="endArrow=classic;html=1;rounded=0;entryX=1;entryY=0.5;entryDx=0;entryDy=0;exitX=0;exitY=0.5;exitDx=0;exitDy=0;" edge="1" parent="1" source="BjHzqv3QGcnHU68rqR9x-18" target="BjHzqv3QGcnHU68rqR9x-23">
          <mxGeometry width="50" height="50" relative="1" as="geometry">
            <mxPoint x="369" y="270" as="sourcePoint" />
            <mxPoint x="299" y="330" as="targetPoint" />
          </mxGeometry>
        </mxCell>
        <mxCell id="BjHzqv3QGcnHU68rqR9x-23" value="Se suben los datos a la BD" style="ellipse;whiteSpace=wrap;html=1;" vertex="1" parent="1">
          <mxGeometry x="200" y="222.5" width="140" height="95" as="geometry" />
        </mxCell>
        <mxCell id="BjHzqv3QGcnHU68rqR9x-24" value="Realiza Captcha" style="ellipse;whiteSpace=wrap;html=1;" vertex="1" parent="1">
          <mxGeometry x="369" y="820" width="120" height="80" as="geometry" />
        </mxCell>
        <mxCell id="BjHzqv3QGcnHU68rqR9x-25" value="" style="endArrow=classic;html=1;rounded=0;exitX=0.5;exitY=1;exitDx=0;exitDy=0;entryX=0.5;entryY=0;entryDx=0;entryDy=0;" edge="1" parent="1" source="BjHzqv3QGcnHU68rqR9x-11" target="BjHzqv3QGcnHU68rqR9x-24">
          <mxGeometry width="50" height="50" relative="1" as="geometry">
            <mxPoint x="520" y="950" as="sourcePoint" />
            <mxPoint x="570" y="900" as="targetPoint" />
          </mxGeometry>
        </mxCell>
        <mxCell id="BjHzqv3QGcnHU68rqR9x-26" value="Valida credenciales" style="ellipse;whiteSpace=wrap;html=1;" vertex="1" parent="1">
          <mxGeometry x="560" y="820" width="120" height="80" as="geometry" />
        </mxCell>
        <mxCell id="BjHzqv3QGcnHU68rqR9x-27" value="" style="endArrow=classic;html=1;rounded=0;exitX=0.5;exitY=1;exitDx=0;exitDy=0;" edge="1" parent="1" source="BjHzqv3QGcnHU68rqR9x-24" target="BjHzqv3QGcnHU68rqR9x-29">
          <mxGeometry width="50" height="50" relative="1" as="geometry">
            <mxPoint x="423.5" y="900" as="sourcePoint" />
            <mxPoint x="424" y="970" as="targetPoint" />
          </mxGeometry>
        </mxCell>
        <mxCell id="BjHzqv3QGcnHU68rqR9x-28" value="" style="endArrow=classic;html=1;rounded=0;exitX=0.5;exitY=1;exitDx=0;exitDy=0;entryX=0.5;entryY=0;entryDx=0;entryDy=0;" edge="1" parent="1" source="BjHzqv3QGcnHU68rqR9x-14" target="BjHzqv3QGcnHU68rqR9x-26">
          <mxGeometry width="50" height="50" relative="1" as="geometry">
            <mxPoint x="660" y="810" as="sourcePoint" />
            <mxPoint x="710" y="760" as="targetPoint" />
          </mxGeometry>
        </mxCell>
        <mxCell id="BjHzqv3QGcnHU68rqR9x-29" value="Valida Captcha" style="ellipse;whiteSpace=wrap;html=1;" vertex="1" parent="1">
          <mxGeometry x="369" y="940" width="120" height="80" as="geometry" />
        </mxCell>
        <mxCell id="BjHzqv3QGcnHU68rqR9x-30" value="Ingresa al&amp;nbsp; sistema" style="ellipse;whiteSpace=wrap;html=1;" vertex="1" parent="1">
          <mxGeometry x="560" y="940" width="120" height="80" as="geometry" />
        </mxCell>
        <mxCell id="BjHzqv3QGcnHU68rqR9x-31" value="" style="endArrow=classic;html=1;rounded=0;entryX=0.5;entryY=0;entryDx=0;entryDy=0;" edge="1" parent="1" source="BjHzqv3QGcnHU68rqR9x-26" target="BjHzqv3QGcnHU68rqR9x-30">
          <mxGeometry width="50" height="50" relative="1" as="geometry">
            <mxPoint x="620" y="910" as="sourcePoint" />
            <mxPoint x="670" y="860" as="targetPoint" />
          </mxGeometry>
        </mxCell>
        <mxCell id="BjHzqv3QGcnHU68rqR9x-33" value="" style="endArrow=classic;html=1;rounded=0;entryX=0;entryY=0.5;entryDx=0;entryDy=0;" edge="1" parent="1" target="BjHzqv3QGcnHU68rqR9x-30">
          <mxGeometry width="50" height="50" relative="1" as="geometry">
            <mxPoint x="490" y="980" as="sourcePoint" />
            <mxPoint x="540" y="930" as="targetPoint" />
          </mxGeometry>
        </mxCell>
        <mxCell id="BjHzqv3QGcnHU68rqR9x-38" value="&amp;lt;extends&amp;gt;" style="text;html=1;align=center;verticalAlign=middle;whiteSpace=wrap;rounded=0;fillColor=#FFFFFF;gradientColor=none;" vertex="1" parent="1">
          <mxGeometry x="230" y="620" width="90" height="20" as="geometry" />
        </mxCell>
        <mxCell id="BjHzqv3QGcnHU68rqR9x-39" value="&amp;lt;extends&amp;gt;" style="text;html=1;align=center;verticalAlign=middle;whiteSpace=wrap;rounded=0;fillColor=#FFFFFF;gradientColor=none;direction=south;" vertex="1" parent="1">
          <mxGeometry x="320" y="680" width="30" height="30" as="geometry" />
        </mxCell>
        <mxCell id="BjHzqv3QGcnHU68rqR9x-40" value="&amp;lt;include&amp;gt;" style="text;html=1;align=center;verticalAlign=middle;whiteSpace=wrap;rounded=0;fillColor=#FFFFFF;gradientColor=none;direction=south;" vertex="1" parent="1">
          <mxGeometry x="510" y="680" width="30" height="30" as="geometry" />
        </mxCell>
        <mxCell id="BjHzqv3QGcnHU68rqR9x-41" value="&amp;lt;include&amp;gt;" style="text;html=1;align=center;verticalAlign=middle;whiteSpace=wrap;rounded=0;fillColor=#FFFFFF;gradientColor=none;direction=south;" vertex="1" parent="1">
          <mxGeometry x="640" y="770" width="30" height="30" as="geometry" />
        </mxCell>
        <mxCell id="BjHzqv3QGcnHU68rqR9x-42" value="&amp;lt;include&amp;gt;" style="text;html=1;align=center;verticalAlign=middle;whiteSpace=wrap;rounded=0;fillColor=#FFFFFF;gradientColor=none;direction=south;" vertex="1" parent="1">
          <mxGeometry x="440" y="770" width="30" height="30" as="geometry" />
        </mxCell>
        <mxCell id="BjHzqv3QGcnHU68rqR9x-43" value="&amp;lt;include&amp;gt;" style="text;html=1;align=center;verticalAlign=middle;whiteSpace=wrap;rounded=0;fillColor=#FFFFFF;gradientColor=none;direction=south;" vertex="1" parent="1">
          <mxGeometry x="450" y="900" width="30" height="30" as="geometry" />
        </mxCell>
        <mxCell id="BjHzqv3QGcnHU68rqR9x-44" value="&amp;lt;include&amp;gt;" style="text;html=1;align=center;verticalAlign=middle;whiteSpace=wrap;rounded=0;fillColor=#FFFFFF;gradientColor=none;direction=south;" vertex="1" parent="1">
          <mxGeometry x="580" y="900" width="30" height="30" as="geometry" />
        </mxCell>
        <mxCell id="BjHzqv3QGcnHU68rqR9x-45" value="&amp;lt;include&amp;gt;" style="text;html=1;align=center;verticalAlign=middle;whiteSpace=wrap;rounded=0;fillColor=#FFFFFF;gradientColor=none;direction=south;" vertex="1" parent="1">
          <mxGeometry x="510" y="990" width="30" height="30" as="geometry" />
        </mxCell>
        <mxCell id="BjHzqv3QGcnHU68rqR9x-46" value="&amp;lt;include&amp;gt;" style="text;html=1;align=center;verticalAlign=middle;whiteSpace=wrap;rounded=0;fillColor=#FFFFFF;gradientColor=none;direction=south;" vertex="1" parent="1">
          <mxGeometry x="360" y="530" width="30" height="30" as="geometry" />
        </mxCell>
        <mxCell id="BjHzqv3QGcnHU68rqR9x-47" value="&amp;lt;include&amp;gt;" style="text;html=1;align=center;verticalAlign=middle;whiteSpace=wrap;rounded=0;fillColor=#FFFFFF;gradientColor=none;direction=south;" vertex="1" parent="1">
          <mxGeometry x="459" y="480" width="30" height="30" as="geometry" />
        </mxCell>
        <mxCell id="BjHzqv3QGcnHU68rqR9x-48" value="&amp;lt;include&amp;gt;" style="text;html=1;align=center;verticalAlign=middle;whiteSpace=wrap;rounded=0;fillColor=#FFFFFF;gradientColor=none;direction=south;" vertex="1" parent="1">
          <mxGeometry x="450" y="317.5" width="30" height="30" as="geometry" />
        </mxCell>
        <mxCell id="BjHzqv3QGcnHU68rqR9x-49" value="&amp;lt;include&amp;gt;" style="text;html=1;align=center;verticalAlign=middle;whiteSpace=wrap;rounded=0;fillColor=#FFFFFF;gradientColor=none;direction=south;" vertex="1" parent="1">
          <mxGeometry x="380" y="230" width="30" height="30" as="geometry" />
        </mxCell>
        <mxCell id="4aXtwGCZOdPZizSv-4cf-1" value="Administrador" style="shape=umlActor;verticalLabelPosition=bottom;verticalAlign=top;html=1;outlineConnect=0;" vertex="1" parent="1">
          <mxGeometry x="790" width="50" height="80" as="geometry" />
        </mxCell>
        <mxCell id="4aXtwGCZOdPZizSv-4cf-2" value="Administra los datos&lt;div&gt;de la BD&lt;/div&gt;" style="ellipse;whiteSpace=wrap;html=1;" vertex="1" parent="1">
          <mxGeometry x="210" width="120" height="80" as="geometry" />
        </mxCell>
        <mxCell id="4aXtwGCZOdPZizSv-4cf-4" value="" style="endArrow=classic;html=1;rounded=0;entryX=0.5;entryY=1;entryDx=0;entryDy=0;exitX=0.5;exitY=0;exitDx=0;exitDy=0;" edge="1" parent="1" source="BjHzqv3QGcnHU68rqR9x-23" target="4aXtwGCZOdPZizSv-4cf-2">
          <mxGeometry width="50" height="50" relative="1" as="geometry">
            <mxPoint x="860" y="210" as="sourcePoint" />
            <mxPoint x="910" y="160" as="targetPoint" />
          </mxGeometry>
        </mxCell>
        <mxCell id="4aXtwGCZOdPZizSv-4cf-5" value="" style="endArrow=none;html=1;rounded=0;exitX=1;exitY=0.5;exitDx=0;exitDy=0;" edge="1" parent="1" source="4aXtwGCZOdPZizSv-4cf-2" target="4aXtwGCZOdPZizSv-4cf-1">
          <mxGeometry width="50" height="50" relative="1" as="geometry">
            <mxPoint x="880" y="160" as="sourcePoint" />
            <mxPoint x="930" y="110" as="targetPoint" />
          </mxGeometry>
        </mxCell>
        <mxCell id="4aXtwGCZOdPZizSv-4cf-6" value="Elimina Usuario" style="ellipse;whiteSpace=wrap;html=1;" vertex="1" parent="1">
          <mxGeometry x="80" y="-170" width="120" height="80" as="geometry" />
        </mxCell>
        <mxCell id="4aXtwGCZOdPZizSv-4cf-7" value="Modifica Usuario" style="ellipse;whiteSpace=wrap;html=1;" vertex="1" parent="1">
          <mxGeometry x="210" y="-170" width="120" height="80" as="geometry" />
        </mxCell>
        <mxCell id="4aXtwGCZOdPZizSv-4cf-8" value="Crear Usuario" style="ellipse;whiteSpace=wrap;html=1;" vertex="1" parent="1">
          <mxGeometry x="340" y="-170" width="120" height="80" as="geometry" />
        </mxCell>
        <mxCell id="4aXtwGCZOdPZizSv-4cf-9" value="" style="endArrow=classic;html=1;rounded=0;entryX=0.5;entryY=1;entryDx=0;entryDy=0;" edge="1" parent="1" target="4aXtwGCZOdPZizSv-4cf-8">
          <mxGeometry width="50" height="50" relative="1" as="geometry">
            <mxPoint x="270" as="sourcePoint" />
            <mxPoint x="320" y="-50" as="targetPoint" />
          </mxGeometry>
        </mxCell>
        <mxCell id="4aXtwGCZOdPZizSv-4cf-10" value="" style="endArrow=classic;html=1;rounded=0;entryX=0.5;entryY=1;entryDx=0;entryDy=0;" edge="1" parent="1" target="4aXtwGCZOdPZizSv-4cf-6">
          <mxGeometry width="50" height="50" relative="1" as="geometry">
            <mxPoint x="270" as="sourcePoint" />
            <mxPoint x="320" y="-50" as="targetPoint" />
          </mxGeometry>
        </mxCell>
        <mxCell id="4aXtwGCZOdPZizSv-4cf-11" value="" style="endArrow=classic;html=1;rounded=0;entryX=0.5;entryY=1;entryDx=0;entryDy=0;" edge="1" parent="1" target="4aXtwGCZOdPZizSv-4cf-7">
          <mxGeometry width="50" height="50" relative="1" as="geometry">
            <mxPoint x="270" as="sourcePoint" />
            <mxPoint x="320" y="-50" as="targetPoint" />
          </mxGeometry>
        </mxCell>
        <mxCell id="4aXtwGCZOdPZizSv-4cf-12" value="&amp;lt;include&amp;gt;" style="text;html=1;align=center;verticalAlign=middle;whiteSpace=wrap;rounded=0;fillColor=#FFFFFF;gradientColor=none;direction=south;" vertex="1" parent="1">
          <mxGeometry x="290" y="170" width="30" height="30" as="geometry" />
        </mxCell>
        <mxCell id="4aXtwGCZOdPZizSv-4cf-13" value="" style="endArrow=classic;html=1;rounded=0;entryX=1;entryY=0.5;entryDx=0;entryDy=0;" edge="1" parent="1" target="BjHzqv3QGcnHU68rqR9x-3">
          <mxGeometry width="50" height="50" relative="1" as="geometry">
            <mxPoint x="370" y="720" as="sourcePoint" />
            <mxPoint x="420" y="670" as="targetPoint" />
          </mxGeometry>
        </mxCell>
        <mxCell id="4aXtwGCZOdPZizSv-4cf-14" value="&amp;lt;extends&amp;gt;" style="text;html=1;align=center;verticalAlign=middle;whiteSpace=wrap;rounded=0;fillColor=#FFFFFF;gradientColor=none;direction=south;" vertex="1" parent="1">
          <mxGeometry x="380" y="-70" width="30" height="30" as="geometry" />
        </mxCell>
        <mxCell id="4aXtwGCZOdPZizSv-4cf-15" value="&amp;lt;extends&amp;gt;" style="text;html=1;align=center;verticalAlign=middle;whiteSpace=wrap;rounded=0;fillColor=#FFFFFF;gradientColor=none;direction=south;" vertex="1" parent="1">
          <mxGeometry x="290" y="-90" width="30" height="30" as="geometry" />
        </mxCell>
        <mxCell id="4aXtwGCZOdPZizSv-4cf-16" value="&amp;lt;extends&amp;gt;" style="text;html=1;align=center;verticalAlign=middle;whiteSpace=wrap;rounded=0;fillColor=#FFFFFF;gradientColor=none;direction=south;" vertex="1" parent="1">
          <mxGeometry x="150" y="-60" width="30" height="30" as="geometry" />
        </mxCell>
      </root>
    </mxGraphModel>
  </diagram>
</mxfile>
